# xmcd
#
# Track frame offsets: 
#        150
#        19055
#        35650
#        54755
#        73267
#        93427
#        108465
#        127687
#        143840
#
# Disc length: 2109 seconds
#
# Revision: 2
# Processed by: cddbd v1.5.2PL0 Copyright (c) Steve Scherf et al.
# Submitted via: ExactAudioCopy v1.0b3
#
DISCID=74083b09
DTITLE=陳慧珊 - 陳慧珊
DYEAR=2000
DGENRE=Pop
TTITLE0=就算我做錯
TTITLE1=乾脆
TTITLE2=陳慧珊/蘇永康 - 固定伴侶
TTITLE3=你是誰
TTITLE4=壞男人
TTITLE5=紅綠燈
TTITLE6=就係她(他)
TTITLE7=陳慧珊/吳國敬 - 對你太在乎(Live Version)
TTITLE8=就算我做錯(Remix)
EXTD=YEAR: 2000 ID3G: 118
EXTT0=
EXTT1=
EXTT2=
EXTT3=
EXTT4=
EXTT5=
EXTT6=
EXTT7=
EXTT8=
PLAYORDER=
